<svg width="12" height="12" viewBox="0 0 12 12" xmlns="http://www.w3.org/2000/svg">
	<path
		d="M9.56726 4.26124L5.98976 7.93462L2.41226 4.26124C2.25509 4.10537 2.04459 4.01913 1.82609 4.02108C1.60759 4.02303 1.39858 4.11302 1.24408 4.27166C1.08957 4.43031 1.00193 4.64492 1.00003 4.86928C0.998133 5.09363 1.08213 5.30977 1.23393 5.47115L5.40059 9.74949C5.55687 9.9099 5.76879 10 5.98976 10C6.21073 10 6.42265 9.9099 6.57893 9.74949L10.7456 5.47115C10.8252 5.39222 10.8887 5.2978 10.9323 5.19341C10.976 5.08901 10.999 4.97673 11 4.86312C11.0009 4.7495 10.9798 4.63683 10.9379 4.53167C10.896 4.42651 10.8342 4.33098 10.7559 4.25063C10.6777 4.17029 10.5846 4.10676 10.4822 4.06373C10.3798 4.02071 10.2701 3.99906 10.1594 4.00005C10.0488 4.00103 9.93943 4.02464 9.83776 4.06948C9.73609 4.11433 9.64413 4.17952 9.56726 4.26124Z"
	/>
</svg>
