<svg width="24" height="24" viewBox="0 0 24 24" fill="none" xmlns="http://www.w3.org/2000/svg">
	<path
		d="M14.3085 15.191L12.1675 17.3C11.0511 16.6263 10.0139 15.8293 9.07547 14.924C8.1719 13.9851 7.37535 12.9487 6.70047 11.834L8.81047 9.693C8.93709 9.56354 9.0226 9.39953 9.05623 9.22159C9.08986 9.04365 9.07011 8.85974 8.99947 8.693L6.80047 3.56C6.71356 3.3578 6.55689 3.19356 6.35903 3.09719C6.16116 3.00083 5.93525 2.97876 5.72247 3.035L1.68847 4.1C1.4865 4.15234 1.30836 4.27184 1.18332 4.43886C1.05828 4.60588 0.993799 4.81047 1.00047 5.019C1.25738 9.71042 3.20814 14.1492 6.49047 17.511C9.85345 20.7938 14.2938 22.7443 18.9865 23C19.1947 23.0066 19.3991 22.942 19.5657 22.817C19.7324 22.6919 19.8515 22.5138 19.9035 22.312L20.9695 18.276C21.026 18.0633 21.0042 17.8374 20.908 17.6395C20.8118 17.4416 20.6476 17.2849 20.4455 17.198L15.3165 15C15.1486 14.9277 14.9629 14.9073 14.7833 14.9413C14.6037 14.9754 14.4383 15.0623 14.3085 15.191V15.191Z"
		stroke="currentColor" stroke-width="2" stroke-miterlimit="10" stroke-linecap="round" stroke-linejoin="round" />
	<path d="M14 1C16.3869 1 18.6761 1.94821 20.364 3.63604C22.0518 5.32387 23 7.61305 23 10" stroke="currentColor"
		stroke-width="2" stroke-miterlimit="10" stroke-linecap="round" stroke-linejoin="round" />
	<path d="M14 5C15.3261 5 16.5979 5.52678 17.5355 6.46447C18.4732 7.40215 19 8.67392 19 10" stroke="currentColor"
		stroke-width="2" stroke-miterlimit="10" stroke-linecap="round" stroke-linejoin="round" />
</svg>
