<svg width="16" height="16" viewBox="0 0 16 16" fill="none" xmlns="http://www.w3.org/2000/svg">
	<path
		d="M3.70704 1.849C4.19783 2.22164 4.60779 2.69012 4.91204 3.226C5.21204 3.736 5.89204 5.154 5.27304 5.955C4.57304 6.86 2.54504 7.166 2.54504 8C2.54504 8.628 3.43404 9.344 3.90904 10.045C4.18165 10.4476 4.32735 10.9227 4.32735 11.409C4.32735 11.8953 4.18165 12.3703 3.90904 12.773C3.68752 13.1207 3.38484 13.4093 3.02704 13.614"
		stroke="currentColor" stroke-linecap="round" stroke-linejoin="round" />
	<path
		d="M13.91 3.38199C12.6772 3.9448 11.3788 4.35096 10.045 4.59099C9.33303 4.64199 9.22703 4.05599 8.68203 3.22699C8.27303 2.605 7.31803 1.827 7.31803 1.182C7.3125 0.958996 7.34255 0.736541 7.40703 0.522995"
		stroke="currentColor" stroke-linecap="round" stroke-linejoin="round" />
	<path
		d="M8 15.5C12.1421 15.5 15.5 12.1421 15.5 8C15.5 3.85786 12.1421 0.5 8 0.5C3.85786 0.5 0.5 3.85786 0.5 8C0.5 12.1421 3.85786 15.5 8 15.5Z"
		stroke="currentColor" stroke-linecap="round" stroke-linejoin="round" />
	<path
		d="M12.7821 8.61599C12.8111 10.716 10.0741 13.341 8.68206 12.773C7.46206 12.273 8.32206 11.315 8.01006 8.61599C7.88006 7.49399 9.07806 6.57099 10.4001 6.57099C10.9857 6.5327 11.5629 6.72533 12.0082 7.1076C12.4535 7.48987 12.7313 8.03135 12.7821 8.61599V8.61599Z"
		stroke="currentColor" stroke-linecap="round" stroke-linejoin="round" />
</svg>
