<svg width="16" height="16" viewBox="0 0 16 16" fill="none" xmlns="http://www.w3.org/2000/svg">
	<path
		d="M8 15.5C12.1421 15.5 15.5 12.1421 15.5 8C15.5 3.85786 12.1421 0.5 8 0.5C3.85786 0.5 0.5 3.85786 0.5 8C0.5 12.1421 3.85786 15.5 8 15.5Z"
		stroke="currentColor" stroke-miterlimit="10" stroke-linecap="round" stroke-linejoin="round" />
	<path
		d="M8 11.5C9.933 11.5 11.5 9.933 11.5 8C11.5 6.067 9.933 4.5 8 4.5C6.067 4.5 4.5 6.067 4.5 8C4.5 9.933 6.067 11.5 8 11.5Z"
		stroke="currentColor" stroke-miterlimit="10" stroke-linecap="round" stroke-linejoin="round" />
	<path d="M10.4736 5.52601L13.3026 2.69701" stroke="currentColor" stroke-miterlimit="10" stroke-linecap="round"
		stroke-linejoin="round" />
	<path d="M10.4736 10.474L13.3026 13.303" stroke="currentColor" stroke-miterlimit="10" stroke-linecap="round"
		stroke-linejoin="round" />
	<path d="M5.52627 10.474L2.69727 13.303" stroke="currentColor" stroke-miterlimit="10" stroke-linecap="round"
		stroke-linejoin="round" />
	<path d="M5.52627 5.52601L2.69727 2.69701" stroke="currentColor" stroke-miterlimit="10" stroke-linecap="round"
		stroke-linejoin="round" />
</svg>
