<svg aria-hidden="true" width="16" height="16" fill="none" xmlns="http://www.w3.org/2000/svg">
	<g clip-path="url(#clip0)" fill="#009681">
		<path
			d="M14.134 11.784l-3.727-1.6a.667.667 0 00-.733.14l-1.556 1.534a12.634 12.634 0 01-2.251-1.725 12.769 12.769 0 01-1.725-2.246l1.533-1.554a.667.667 0 00.139-.733l-1.6-3.727a.667.667 0 00-.78-.382L.5 2.267a.667.667 0 00-.5.666 14.095 14.095 0 003.99 9.078A14.09 14.09 0 0013.071 16a.667.667 0 00.667-.5l.774-2.933a.666.666 0 00-.378-.783zM12.001 6.667a.666.666 0 101.334 0 4.004 4.004 0 00-4-4 .667.667 0 000 1.333A2.667 2.667 0 0112 6.667z" />
		<path
			d="M9.335 0a.667.667 0 100 1.333 5.34 5.34 0 015.333 5.334.667.667 0 101.333 0A6.674 6.674 0 009.335 0z" />
	</g>
	<defs>
		<clipPath id="clip0">
			<path fill="#fff" d="M0 0h16v16H0z" />
		</clipPath>
	</defs>
</svg>
