<svg width="24" height="24" xmlns="http://www.w3.org/2000/svg"><path d="M21.2 17.676l-5.59-2.4a1 1 0 00-1.1.211l-2.334 2.3A18.95 18.95 0 018.8 15.2a19.154 19.154 0 01-2.588-3.37l2.3-2.33a1 1 0 00.208-1.1l-2.4-5.59a1 1 0 00-1.17-.573L.75 3.4a1 1 0 00-.75 1 21.143 21.143 0 005.985 13.616A21.135 21.135 0 0019.606 24a1 1 0 001-.749l1.162-4.4a1 1 0 00-.568-1.175zM18 10a1 1 0 002 0 6.006 6.006 0 00-6-6 1 1 0 100 2 4 4 0 014 4z"/><path d="M14 0a1 1 0 100 2 8.009 8.009 0 018 8 1 1 0 002 0A10.011 10.011 0 0014 0z"/></svg>
