<svg width="24" height="24" viewBox="0 0 24 24" xmlns="http://www.w3.org/2000/svg">
	<path
		d="M12.3541 4.0135C13.2266 4 14.0941 4.008 14.9606 4C15.0131 5.0205 15.3801 6.06 16.1271 6.7815C16.8726 7.521 17.9271 7.8595 18.9531 7.974V10.6585C17.9916 10.627 17.0256 10.427 16.1531 10.013C15.7731 9.841 15.4191 9.6195 15.0726 9.393C15.0681 11.341 15.0806 13.2865 15.0601 15.2265C15.0081 16.1585 14.7006 17.086 14.1586 17.854C13.2866 19.1325 11.7731 19.966 10.2186 19.992C9.26514 20.0465 8.31263 19.7865 7.50013 19.3075C6.15363 18.5135 5.20613 17.06 5.06813 15.5C5.05075 15.1696 5.04808 14.8386 5.06013 14.508C5.18013 13.2395 5.80764 12.026 6.78164 11.2005C7.88563 10.239 9.43214 9.781 10.8801 10.052C10.8936 11.0395 10.8541 12.026 10.8541 13.0135C10.1926 12.7995 9.41963 12.8595 8.84163 13.261C8.41876 13.5396 8.09919 13.9495 7.93213 14.4275C7.79413 14.7655 7.83364 15.141 7.84163 15.5C8.00013 16.594 9.05213 17.5135 10.1751 17.414C10.9196 17.406 11.6331 16.974 12.0211 16.3415C12.1466 16.12 12.2871 15.8935 12.2946 15.633C12.3601 14.4405 12.3341 13.253 12.3421 12.0605C12.3476 9.373 12.3341 6.693 12.3546 4.014L12.3541 4.0135Z"
	/>
</svg>
