<svg width="30" height="40" fill="none" xmlns="http://www.w3.org/2000/svg">
	<path
		d="M15.445 38.886l-.02.008-.018.01a.934.934 0 01-.41.096.884.884 0 01-.399-.094l-.036-.018-.037-.015a.668.668 0 01-.28-.213l-.01-.014-.012-.013c-.675-.823-4.01-4.937-7.173-9.79-1.581-2.427-3.106-5.019-4.232-7.463C1.68 18.911 1 16.7 1 15a14 14 0 0128 0c0 1.699-.68 3.911-1.818 6.38-1.126 2.444-2.652 5.036-4.234 7.463a116.961 116.961 0 01-7.184 9.785l-.01.012-.01.011a.782.782 0 01-.3.235z"
		stroke="#004851" stroke-width="2"
		fill="#fff"
	/>
</svg>
